<?xml version="1.0" standalone="no"?><!DOCTYPE svg PUBLIC "-//W3C//DTD SVG 1.1//EN" "http://www.w3.org/Graphics/SVG/1.1/DTD/svg11.dtd"><svg t="1530130249132" class="icon" style="" viewBox="0 0 1099 1024" version="1.1" xmlns="http://www.w3.org/2000/svg" p-id="10577" xmlns:xlink="http://www.w3.org/1999/xlink" width="214.6484375" height="200"><defs><style type="text/css"></style></defs><path d="M795.122108 480.968889h-28.730328V97.687884c0-37.925043-31.031111-68.956153-68.956153-68.956153H230.829797c-37.925043 0-68.956153 31.031111-68.956153 68.956153v382.707212h-28.731731V97.687884c0-54.015092 43.672792-97.687884 97.687884-97.687884h466.030634c54.015092 0 97.687884 43.672792 97.687884 97.687884v383.281005h0.573793z" p-id="10578" fill="#1296db"></path><path d="M36.604421 648.763318H7.297494c0-104.584622 86.195192-189.628019 192.502595-189.628019h518.895335c102.285241 0 185.032064 81.597834 185.032064 182.158892h-29.306926c0-84.471007-70.105142-153.427161-155.725138-153.427161H199.800089C109.582736 487.865627 36.604421 560.270149 36.604421 648.763318z" p-id="10579" fill="#1296db"></path><path d="M217.039128 1024H89.470524V633.247061H280.248935l-63.209807 390.752939z m-98.836873-28.733133h74.7025l53.441299-333.288075H118.202255v333.288075z m745.300811 28.733133h-126.418212L635.374808 633.248464h228.128258v390.751536z m-104.583219-28.733133h75.851488V661.978792H672.149459l86.770388 333.288075z" p-id="10580" fill="#1296db"></path><path d="M7.297494 628.075911h896.429994v28.731731H7.297494v-28.731731z" p-id="10581" fill="#1296db"></path></svg>