<?xml version="1.0" standalone="no"?><!DOCTYPE svg PUBLIC "-//W3C//DTD SVG 1.1//EN" "http://www.w3.org/Graphics/SVG/1.1/DTD/svg11.dtd"><svg t="1530130340395" class="icon" style="" viewBox="0 0 1024 1024" version="1.1" xmlns="http://www.w3.org/2000/svg" p-id="12014" xmlns:xlink="http://www.w3.org/1999/xlink" width="200" height="200"><defs><style type="text/css"></style></defs><path d="M843.562976 64.432475 175.633624 64.432475c-101.308337 0-110.13026 116.528993-110.13026 116.528993l0 673.844062c0 68.736501 110.13026 103.077633 110.13026 103.077633l495.512491 0 287.735283-282.403858L958.881398 172.017772C958.954053 85.348853 843.562976 64.432475 843.562976 64.432475zM889.152291 647.415133c0 35.1915-37.326117 37.056987-37.326117 37.056987L724.805222 684.47212c-41.564651 0-41.176818 31.385824-41.176818 31.385824l0 125.545344c0 44.351114-22.539342 46.26572-22.539342 46.26572L191.896007 887.669008c-50.968835 0-56.470129-43.332924-56.470129-43.332924L135.425877 197.418278c0-56.786331 56.470129-67.207681 56.470129-67.207681s580.14503 2.859118 633.491005 2.859118c53.272297 0 63.765279 63.596434 63.765279 63.596434L889.152291 647.415133zM720.36919 338.64272 300.425815 338.64272c-19.218714 0-34.778084 15.46318-34.778084 34.609239 0 19.195178 15.559371 34.633798 34.778084 34.633798l419.942351 0c19.22076 0 34.7085-15.438621 34.7085-34.633798C755.077689 354.1059 739.58995 338.64272 720.36919 338.64272zM647.20075 515.665483 299.38409 515.665483c-18.564821 0-33.663704 15.002692-33.663704 33.688263 0 18.516726 15.098883 33.593096 33.663704 33.593096l347.81666 0c18.637476 0 33.736359-15.07637 33.736359-33.593096C680.937109 530.668175 665.766594 515.617387 647.20075 515.665483z" p-id="12015" fill="#1296db"></path></svg>