<?xml version="1.0" standalone="no"?><!DOCTYPE svg PUBLIC "-//W3C//DTD SVG 1.1//EN" "http://www.w3.org/Graphics/SVG/1.1/DTD/svg11.dtd"><svg t="1530130308632" class="icon" style="" viewBox="0 0 1024 1024" version="1.1" xmlns="http://www.w3.org/2000/svg" p-id="11296" xmlns:xlink="http://www.w3.org/1999/xlink" width="200" height="200"><defs><style type="text/css"></style></defs><path d="M512 0C229.216 0 0 229.216 0 512c0 282.752 229.216 512 512 512 282.752 0 512-229.248 512-512C1024 229.216 794.752 0 512 0zM512 960C264.576 960 64 759.424 64 512S264.576 64 512 64s448 200.576 448 448S759.424 960 512 960zM640.864 273.568l-81.76 150.656c-21.792 40.832-35.136 67.968-40.032 81.44l-1.376 0c-14.4-32.704-54.976-110.08-121.792-232.096L319.008 273.568l143.008 245.664-117.28 0 0 54.272 137.44 0 0 74.816-137.44 0 0 54.976 137.44 0 0 108.928L550.4 812.224l0-108.928 132.576 0L682.976 648.32 550.4 648.32l0-74.816 132.576 0 0-54.272-113.792 0L713.6 273.568 640.864 273.568z" p-id="11297" fill="#1296db"></path></svg>