<?xml version="1.0" standalone="no"?><!DOCTYPE svg PUBLIC "-//W3C//DTD SVG 1.1//EN" "http://www.w3.org/Graphics/SVG/1.1/DTD/svg11.dtd"><svg t="1530126082918" class="icon" style="" viewBox="0 0 1024 1024" version="1.1" xmlns="http://www.w3.org/2000/svg" p-id="8282" xmlns:xlink="http://www.w3.org/1999/xlink" width="200" height="200"><defs><style type="text/css"></style></defs><path d="M396.687575 305.615869L287.867044 416.363494c56.608356 125.742817 176.810781 265.818388 316.163692 312.911723l94.066226-93.765118s222.940569 38.90319 273.044987 63.232739c43.480035 21.077579 57.812789 67.749363 51.007742 125.381487-7.226599 61.907862-88.405391 198.430355-234.563349 199.935897-146.157958 1.505541-361.390156-108.639867-515.617816-271.057673C117.801088 590.404079-19.684952 384.446017 2.416396 209.562329 24.337078 34.738862 176.697867 3.423601 214.818175 0.653405c38.54186-2.830418 69.134461 8.431032 92.319798 37.277205 29.930163 37.09654 89.549602 267.68526 89.549602 267.685259z" p-id="8283" fill="#1296db"></path></svg>