<?xml version="1.0" standalone="no"?><!DOCTYPE svg PUBLIC "-//W3C//DTD SVG 1.1//EN" "http://www.w3.org/Graphics/SVG/1.1/DTD/svg11.dtd"><svg t="1530131007087" class="icon" style="" viewBox="0 0 1024 1024" version="1.1" xmlns="http://www.w3.org/2000/svg" p-id="13290" xmlns:xlink="http://www.w3.org/1999/xlink" width="200" height="200"><defs><style type="text/css"></style></defs><path d="M512 426.666667c212.096-0.256 384.981333-69.76 384.981333-157.354667 0-87.594667-172.928-146.645333-384.981333-146.645333s-383.701333 63.018667-384 150.613333C127.701333 362.112 299.861333 426.922667 512 426.666667zM512 469.333333c-212.096 0-383.018667-85.333333-383.018667-128l0 256c0 42.666667 129.365333 127.829333 340.352 128l0 42.666667c-42.752 42.752-128 56.917333-128 85.333333 0 21.674667 75.861333 42.666667 170.666667 42.666667 94.805333 0 170.666667-22.314667 170.666667-42.666667 0-28.416-85.333333-42.666667-128-85.333333l0-42.666667c169.216 0 342.314667-85.333333 342.314667-128L896.981333 341.333333C896.981333 384 724.096 469.333333 512 469.333333z" p-id="13291" fill="#1296db"></path></svg>